<?xml version="1.0" standalone="no"?>
<!DOCTYPE svg PUBLIC "-//W3C//DTD SVG 20010904//EN"
 "http://www.w3.org/TR/2001/REC-SVG-20010904/DTD/svg10.dtd">
<svg version="1.0" xmlns="http://www.w3.org/2000/svg"
 width="700.000000pt" height="700.000000pt" viewBox="0 0 700.000000 700.000000"
 preserveAspectRatio="xMidYMid meet">
<metadata>
Created by potrace 1.14, written by Peter Selinger 2001-2017
</metadata>
<g transform="translate(0.000000,700.000000) scale(0.100000,-0.100000)"
fill="#000000" stroke="none">
<path d="M881 6129 c-479 -479 -871 -872 -871 -875 0 -2 392 -4 870 -4 l870 0
0 -876 0 -876 -870 -868 c-478 -478 -870 -871 -870 -874 0 -3 392 -6 870 -6
l870 0 0 -870 c0 -478 3 -870 6 -870 3 0 396 391 875 869 l869 870 0 875 0
876 -870 0 c-478 0 -870 2 -870 4 0 3 392 397 871 875 l870 871 875 0 874 0 0
-876 0 -875 -872 -872 -872 -872 872 -3 872 -2 0 -870 c0 -479 3 -870 6 -870
3 0 396 391 875 869 l869 870 0 875 0 876 -872 2 -872 3 872 872 872 872 0
875 0 876 -874 0 -875 0 -870 -870 c-478 -478 -872 -870 -875 -870 -3 0 -6
392 -6 870 l0 870 -874 0 -874 0 -871 -871z"/>
</g>
</svg>
