<svg width="32" height="32" viewBox="0 0 32 32" fill="none" xmlns="http://www.w3.org/2000/svg">
<path fill-rule="evenodd" clip-rule="evenodd" d="M3.66943 25.7023C4.07199 25.8963 4.51679 25.9999 4.97215 25.9999H27C27.329 25.9999 27.6525 25.9459 27.9587 25.8425L19.2675 16.7561C18.815 17.1903 18.4109 17.5779 18.0736 17.9001C16.9139 19.0095 15.0861 19.0095 13.9264 17.9001C13.5267 17.518 13.031 17.0425 12.472 16.5059L3.66943 25.7023Z" fill="#000101"/>
<path fill-rule="evenodd" clip-rule="evenodd" d="M29.3119 7.08789C28.0328 8.32085 23.8469 12.3557 20.71 15.3708L29.5378 24.5999C29.8376 24.1247 30.0002 23.5708 30.0002 22.9999V8.99989C30.0002 8.29909 29.7551 7.62357 29.3119 7.08789Z" fill="#000101"/>
<path fill-rule="evenodd" clip-rule="evenodd" d="M2.67425 7.07129C2.22241 7.60953 1.97217 8.29177 1.97217 8.99993V22.9999C1.97217 23.4476 2.07233 23.885 2.26017 24.2822L11.0298 15.1199C7.96129 12.1692 4.00961 8.35929 2.67425 7.07129Z" fill="#000101"/>
<path fill-rule="evenodd" clip-rule="evenodd" d="M4.48682 6.03968L15.3086 16.455C15.6951 16.825 16.3044 16.825 16.691 16.455C19.1767 14.0771 25.3105 8.16704 27.5127 6.04416C27.3444 6.01504 27.1729 6 26.9998 6H4.97194C4.80842 6 4.64618 6.01344 4.48682 6.03968Z" fill="#000101"/>
</svg>
