<svg width="32" height="32" viewBox="0 0 32 32" fill="none" xmlns="http://www.w3.org/2000/svg">
<path d="M28.8003 28.8004V19.4244C28.8003 14.8164 27.8083 11.2964 22.4323 11.2964C19.8403 11.2964 18.1123 12.7044 17.4083 14.0484H17.3443V11.7124H12.2563V28.8004H17.5683V20.3204C17.5683 18.0804 17.9843 15.9364 20.7363 15.9364C23.4563 15.9364 23.4883 18.4644 23.4883 20.4484V28.7684H28.8003V28.8004Z" fill="#000101"/>
<path d="M3.61621 11.7124H8.92821V28.8004H3.61621V11.7124Z" fill="#000101"/>
<path d="M6.2722 3.2002C4.5762 3.2002 3.2002 4.5762 3.2002 6.2722C3.2002 7.9682 4.5762 9.37619 6.2722 9.37619C7.9682 9.37619 9.3442 7.9682 9.3442 6.2722C9.3442 4.5762 7.9682 3.2002 6.2722 3.2002Z" fill="#000101"/>
</svg>
