<svg width="180" height="36" viewBox="0 0 180 36" fill="none" xmlns="http://www.w3.org/2000/svg">
<path d="M0 19.2966V8.2449H5.19158V17.7863C5.19158 22.0305 7.33263 23.1186 9.57654 23.1186C12.9789 23.1186 15.4015 20.9072 15.4015 17.364V8.24219H20.5931V26.659H15.4015V23.7114C13.6475 26.3072 11.0166 27.2193 7.96332 27.2193C2.91249 27.2193 0 24.5532 0 19.2912" fill="#000101"/>
<path d="M23.7871 8.24731H28.9787V11.019C30.7679 8.564 33.6803 7.68701 36.3113 7.68701C41.3622 7.68701 44.3802 10.6347 44.3802 15.4392V26.6669H39.1886V17.2987C39.1886 13.4389 37.505 11.7905 34.6277 11.7905C31.5041 11.7905 28.9787 14.0019 28.9787 17.5099V26.6669H23.7871V8.24731Z" fill="#000101"/>
<path d="M63.5389 16.5952C63.5389 13.7179 61.2598 11.8232 57.7491 11.8232C54.2384 11.8232 51.9593 14.0346 51.9593 17.4018C51.9593 20.769 54.2736 23.086 57.8168 23.086C61.3599 23.086 63.5362 21.1209 63.5362 18.0677V16.5952H63.5389ZM68.7305 0V26.6617H63.6796V24.5558C62.2071 26.169 59.2947 27.2219 56.5933 27.2219C50.7683 27.2219 46.8408 23.2917 46.8408 17.3991C46.8408 11.5065 50.7711 7.68179 56.6989 7.68179C59.2947 7.68179 61.8904 8.76991 63.5389 10.5239V0H68.7305Z" fill="#000101"/>
<path d="M86.8357 15.6479C86.8005 13.1577 84.4862 11.788 81.6441 11.788C78.802 11.788 76.3118 13.1225 76.3118 15.6479H86.8357ZM71.0471 17.4371C71.0471 11.6825 74.9774 7.68457 81.5711 7.68457C87.4989 7.68457 91.919 10.9462 91.919 16.6304V18.8392H76.2712C76.6231 21.4701 78.5178 23.1186 81.8498 23.1186C84.5864 23.1186 86.3404 21.8897 86.833 20.5931H91.9542C91.5698 23.7492 87.9536 27.2247 81.7091 27.2247C74.8339 27.2247 71.0444 23.1213 71.0444 17.4371" fill="#000101"/>
<path d="M94.9399 8.2477H99.9204V11.7205C100.797 10.2832 102.164 8.98395 103.78 8.38846C105.009 7.93372 106.235 7.79297 107.919 7.79297V13.0197H107.147C102.868 13.0197 100.132 15.5803 100.132 19.405V26.6672H94.9399V8.2477Z" fill="#000101"/>
<path d="M125.919 16.5952C125.919 13.7179 123.64 11.8232 120.129 11.8232C116.618 11.8232 114.339 14.0346 114.339 17.4018C114.339 20.769 116.653 23.086 120.199 23.086C123.745 23.086 125.919 21.1209 125.919 18.0677V16.5952ZM131.11 0V26.6617H126.059V24.5558C124.587 26.169 121.675 27.2219 118.973 27.2219C113.148 27.2219 109.221 23.2917 109.221 17.3991C109.221 11.5065 113.151 7.68179 119.079 7.68179C121.675 7.68179 124.27 8.76991 125.919 10.5239V0H131.11Z" fill="#000101"/>
<path d="M150.548 17.4371C150.548 13.8235 148.301 11.788 144.688 11.788C141.074 11.788 138.863 13.8235 138.863 17.4371C138.863 21.0506 141.074 23.1213 144.688 23.1213C148.301 23.1213 150.548 21.0858 150.548 17.4371ZM133.744 17.4371C133.744 11.7177 138.059 7.68457 144.761 7.68457C151.463 7.68457 155.636 11.7177 155.636 17.4371C155.636 23.1565 151.392 27.2247 144.761 27.2247C138.129 27.2247 133.744 23.0861 133.744 17.4371Z" fill="#000101"/>
<path d="M174.716 16.5953C174.716 13.4717 172.226 11.8232 168.856 11.8232C165.172 11.8232 162.964 13.7883 162.964 17.4019C162.964 21.0154 165.21 23.0861 168.927 23.0861C172.294 23.0861 174.716 21.4025 174.716 18.0704V16.598V16.5953ZM179.908 8.24487V24.2067C179.908 32.17 176.083 35.0825 169.628 35.0825C163.665 35.0825 159.875 32.8359 158.857 28.4861H163.943C164.539 30.1697 166.61 31.1522 169.381 31.1522C173.312 31.1522 174.643 29.5742 174.714 25.6792V24.3826C173.136 26.207 170.748 27.2247 167.768 27.2247C161.664 27.2247 158.016 23.1565 158.016 17.3315C158.016 11.8584 161.172 7.68457 167.557 7.68457C170.54 7.68457 173.1 8.70232 174.714 10.6674V8.24758H179.905L179.908 8.24487Z" fill="#000101"/>
</svg>
