<svg width="727" height="144" viewBox="0 0 727 144" fill="none" xmlns="http://www.w3.org/2000/svg">
<path d="M0 78.6071V33.6941H20.9682V72.4691C20.9682 89.7171 29.6157 94.1391 38.6786 94.1391C52.4205 94.1391 62.205 85.1521 62.205 70.7531V33.6831H83.1732V108.527H62.205V96.5481C55.1208 107.097 44.4946 110.804 32.163 110.804C11.7632 110.804 0 99.9691 0 78.5851" fill="#FFCA00"/>
<path d="M96.0732 33.7047H117.041V44.9687C124.268 34.9917 136.031 31.4277 146.657 31.4277C167.057 31.4277 179.246 43.4068 179.246 62.9318V108.56H158.278V70.4887C158.278 54.8027 151.478 48.1038 139.857 48.1038C127.241 48.1038 117.041 57.0908 117.041 71.3468V108.56H96.0732V33.7047Z" fill="#FFCA00"/>
<path d="M256.626 67.629C256.626 55.936 247.421 48.236 233.241 48.236C219.062 48.236 209.857 57.223 209.857 70.907C209.857 84.591 219.204 94.007 233.515 94.007C247.825 94.007 256.615 86.021 256.615 73.613V67.629H256.626ZM277.594 0.187988V108.538H257.194V99.98C251.247 106.536 239.484 110.815 228.573 110.815C205.047 110.815 189.184 94.843 189.184 70.896C189.184 46.949 205.058 31.4059 229 31.4059C239.484 31.4059 249.968 35.8279 256.626 42.9559V0.187988H277.594Z" fill="#FFCA00"/>
<path d="M350.72 63.779C350.578 53.659 341.231 48.093 329.752 48.093C318.273 48.093 308.215 53.516 308.215 63.779H350.72ZM286.952 71.05C286.952 47.664 302.826 31.417 329.457 31.417C353.399 31.417 371.251 44.672 371.251 67.772V76.748H308.051C309.472 87.44 317.125 94.139 330.583 94.139C341.635 94.139 348.719 89.145 350.709 83.876H371.393C369.841 96.702 355.235 110.826 330.014 110.826C302.246 110.826 286.941 94.15 286.941 71.05" fill="#FFCA00"/>
<path d="M383.452 33.7049H403.567V47.8179C407.109 41.9769 412.63 36.6969 419.157 34.2769C424.12 32.4289 429.072 31.8569 435.872 31.8569V53.0979H432.757C415.472 53.0979 404.42 63.504 404.42 79.047V108.56H383.452V33.7049Z" fill="#FFCA00"/>
<path d="M508.572 67.629C508.572 55.936 499.367 48.236 485.188 48.236C471.008 48.236 461.803 57.223 461.803 70.907C461.803 84.591 471.15 94.007 485.472 94.007C499.793 94.007 508.572 86.021 508.572 73.613V67.629ZM529.54 0.187988V108.538H509.14V99.98C503.193 106.536 491.43 110.815 480.519 110.815C456.993 110.815 441.13 94.843 441.13 70.896C441.13 46.949 457.004 31.4059 480.946 31.4059C491.43 31.4059 501.914 35.8279 508.572 42.9559V0.187988H529.54Z" fill="#FFCA00"/>
<path d="M608.046 71.05C608.046 56.365 598.972 48.093 584.377 48.093C569.782 48.093 560.851 56.365 560.851 71.05C560.851 85.735 569.782 94.15 584.377 94.15C598.972 94.15 608.046 85.878 608.046 71.05ZM540.178 71.05C540.178 47.807 557.604 31.417 584.672 31.417C611.741 31.417 628.598 47.807 628.598 71.05C628.598 94.293 611.456 110.826 584.672 110.826C557.888 110.826 540.178 94.007 540.178 71.05Z" fill="#FFCA00"/>
<path d="M705.66 67.629C705.66 54.935 695.602 48.236 681.992 48.236C667.113 48.236 658.192 56.222 658.192 70.907C658.192 85.592 667.266 94.007 682.276 94.007C695.876 94.007 705.66 87.165 705.66 73.624V67.64V67.629ZM726.628 33.694V98.561C726.628 130.923 711.181 142.759 685.107 142.759C661.023 142.759 645.718 133.629 641.608 115.952H662.149C664.554 122.794 672.918 126.787 684.112 126.787C699.986 126.787 705.365 120.374 705.649 104.545V99.276C699.276 106.69 689.633 110.826 677.597 110.826C652.944 110.826 638.208 94.293 638.208 70.621C638.208 48.379 650.955 31.417 676.744 31.417C688.791 31.417 699.133 35.553 705.649 43.539V33.705H726.617L726.628 33.694Z" fill="#FFCA00"/>
</svg>
