<svg width="39" height="35" viewBox="0 0 39 35" fill="none" xmlns="http://www.w3.org/2000/svg">
<path d="M3.30453 34.9853C1.86453 31.9053 1.06453 28.8253 0.904532 25.7453C0.784532 22.6253 1.22453 19.6053 2.22453 16.6853C3.26453 13.7253 4.84453 10.8853 6.96453 8.16527C9.08453 5.40527 11.6845 2.84527 14.7645 0.485271L18.7845 3.12527C19.4245 3.52527 19.7445 4.08527 19.7445 4.80527C19.7445 5.24527 19.6245 5.66527 19.3845 6.06527C19.1445 6.42527 18.7645 6.88527 18.2445 7.44527C17.5645 8.24527 16.7845 9.30527 15.9045 10.6253C15.0245 11.9453 14.3045 13.4853 13.7445 15.2453C13.2245 17.0053 12.9845 18.9453 13.0245 21.0653C13.0645 23.1853 13.6245 25.4253 14.7045 27.7853C15.0245 28.5853 14.9645 29.3453 14.5245 30.0653C14.0845 30.7453 13.3645 31.2653 12.3645 31.6253L3.30453 34.9853ZM21.6045 34.9853C20.1645 31.9053 19.3645 28.8253 19.2045 25.7453C19.0845 22.6253 19.5245 19.6053 20.5245 16.6853C21.5645 13.7253 23.1445 10.8853 25.2645 8.16527C27.3845 5.40527 29.9845 2.84527 33.0645 0.485271L37.0845 3.12527C37.7245 3.52527 38.0445 4.08527 38.0445 4.80527C38.0445 5.24527 37.9245 5.66527 37.6845 6.06527C37.4445 6.42527 37.0645 6.88527 36.5445 7.44527C35.8645 8.24527 35.0845 9.30527 34.2045 10.6253C33.3245 11.9453 32.6045 13.4853 32.0445 15.2453C31.5245 17.0053 31.2845 18.9453 31.3245 21.0653C31.3645 23.1853 31.9245 25.4253 33.0045 27.7853C33.3245 28.5853 33.2645 29.3453 32.8245 30.0653C32.3845 30.7453 31.6645 31.2653 30.6645 31.6253L21.6045 34.9853Z" fill="#FFCA00"/>
</svg>
