<svg xmlns="http://www.w3.org/2000/svg"><style>:root svg:not(:target){display:none}</style><svg viewBox="0 0 32 32" fill="none" id="arrow-down"><path d="M23 12L15.5 19.5L8 12" stroke="#FFCA00" stroke-width="2" stroke-linecap="round" stroke-linejoin="round"></path></svg><svg viewBox="0 0 32 32" fill="none" id="arrow-right"><path d="M12 9L19.5 16.5L12 24" stroke="#FFCA00" stroke-width="2" stroke-linecap="round" stroke-linejoin="round"></path></svg><svg viewBox="0 0 32 32" fill="none" id="email"><path fill-rule="evenodd" clip-rule="evenodd" d="M3.66943 25.7023C4.07199 25.8963 4.51679 25.9999 4.97215 25.9999H27C27.329 25.9999 27.6525 25.9459 27.9587 25.8425L19.2675 16.7561C18.815 17.1903 18.4109 17.5779 18.0736 17.9001C16.9139 19.0095 15.0861 19.0095 13.9264 17.9001C13.5267 17.518 13.031 17.0425 12.472 16.5059L3.66943 25.7023Z" fill="#000101"></path><path fill-rule="evenodd" clip-rule="evenodd" d="M29.3119 7.08789C28.0328 8.32085 23.8469 12.3557 20.71 15.3708L29.5378 24.5999C29.8376 24.1247 30.0002 23.5708 30.0002 22.9999V8.99989C30.0002 8.29909 29.7551 7.62357 29.3119 7.08789Z" fill="#000101"></path><path fill-rule="evenodd" clip-rule="evenodd" d="M2.67425 7.07129C2.22241 7.60953 1.97217 8.29177 1.97217 8.99993V22.9999C1.97217 23.4476 2.07233 23.885 2.26017 24.2822L11.0298 15.1199C7.96129 12.1692 4.00961 8.35929 2.67425 7.07129Z" fill="#000101"></path><path fill-rule="evenodd" clip-rule="evenodd" d="M4.48682 6.03968L15.3086 16.455C15.6951 16.825 16.3044 16.825 16.691 16.455C19.1767 14.0771 25.3105 8.16704 27.5127 6.04416C27.3444 6.01504 27.1729 6 26.9998 6H4.97194C4.80842 6 4.64618 6.01344 4.48682 6.03968Z" fill="#000101"></path></svg><svg viewBox="0 0 32 32" fill="none" id="linkedin"><path d="M28.8003 28.8004V19.4244C28.8003 14.8164 27.8083 11.2964 22.4323 11.2964C19.8403 11.2964 18.1123 12.7044 17.4083 14.0484H17.3443V11.7124H12.2563V28.8004H17.5683V20.3204C17.5683 18.0804 17.9843 15.9364 20.7363 15.9364C23.4563 15.9364 23.4883 18.4644 23.4883 20.4484V28.7684H28.8003V28.8004Z" fill="#000101"></path><path d="M3.61621 11.7124H8.92821V28.8004H3.61621V11.7124Z" fill="#000101"></path><path d="M6.2722 3.2002C4.5762 3.2002 3.2002 4.5762 3.2002 6.2722C3.2002 7.9682 4.5762 9.37619 6.2722 9.37619C7.9682 9.37619 9.3442 7.9682 9.3442 6.2722C9.3442 4.5762 7.9682 3.2002 6.2722 3.2002Z" fill="#000101"></path></svg><svg viewBox="0 0 44 44" fill="none" id="logo-sign-white"><path d="M22.0013 0H11.0006L0 11.0006H11.0006V22.0013L22.0013 11.0006V0Z" fill="white"></path><path d="M44.0027 0H33.0021L22.0015 11.0006H33.0021V22.0013L44.0027 11.0006V0Z" fill="white"></path><path d="M11.0006 22.001L0 32.9991H11.0006V43.9997L22.0013 32.9991V22.001H11.0006Z" fill="white"></path><path d="M33.0021 32.9991V43.9997L44.0027 32.9991V22.001H33.0021L22.0015 32.9991H33.0021Z" fill="white"></path></svg><svg viewBox="0 0 44 44" fill="none" id="logo-sign-yellow"><path d="M22.0013 0H11.0006L0 11.0006H11.0006V22.0013L22.0013 11.0006V0Z" fill="#FFDA4E"></path><path d="M44.0027 0H33.0021L22.0015 11.0006H33.0021V22.0013L44.0027 11.0006V0Z" fill="#FFDA4E"></path><path d="M11.0006 22.001L0 32.9991H11.0006V43.9997L22.0013 32.9991V22.001H11.0006Z" fill="#FFDA4E"></path><path d="M33.0021 32.9991V43.9997L44.0027 32.9991V22.001H33.0021L22.0015 32.9991H33.0021Z" fill="#FFDA4E"></path></svg><svg viewBox="0 0 180 36" fill="none" id="logo-text-small"><path d="M0 19.2966V8.2449H5.19158V17.7863C5.19158 22.0305 7.33263 23.1186 9.57654 23.1186C12.9789 23.1186 15.4015 20.9072 15.4015 17.364V8.24219H20.5931V26.659H15.4015V23.7114C13.6475 26.3072 11.0166 27.2193 7.96332 27.2193C2.91249 27.2193 0 24.5532 0 19.2912" fill="#000101"></path><path d="M23.7871 8.24731H28.9787V11.019C30.7679 8.564 33.6803 7.68701 36.3113 7.68701C41.3622 7.68701 44.3802 10.6347 44.3802 15.4392V26.6669H39.1886V17.2987C39.1886 13.4389 37.505 11.7905 34.6277 11.7905C31.5041 11.7905 28.9787 14.0019 28.9787 17.5099V26.6669H23.7871V8.24731Z" fill="#000101"></path><path d="M63.5389 16.5952C63.5389 13.7179 61.2598 11.8232 57.7491 11.8232C54.2384 11.8232 51.9593 14.0346 51.9593 17.4018C51.9593 20.769 54.2736 23.086 57.8168 23.086C61.3599 23.086 63.5362 21.1209 63.5362 18.0677V16.5952H63.5389ZM68.7305 0V26.6617H63.6796V24.5558C62.2071 26.169 59.2947 27.2219 56.5933 27.2219C50.7683 27.2219 46.8408 23.2917 46.8408 17.3991C46.8408 11.5065 50.7711 7.68179 56.6989 7.68179C59.2947 7.68179 61.8904 8.76991 63.5389 10.5239V0H68.7305Z" fill="#000101"></path><path d="M86.8357 15.6479C86.8005 13.1577 84.4862 11.788 81.6441 11.788C78.802 11.788 76.3118 13.1225 76.3118 15.6479H86.8357ZM71.0471 17.4371C71.0471 11.6825 74.9774 7.68457 81.5711 7.68457C87.4989 7.68457 91.919 10.9462 91.919 16.6304V18.8392H76.2712C76.6231 21.4701 78.5178 23.1186 81.8498 23.1186C84.5864 23.1186 86.3404 21.8897 86.833 20.5931H91.9542C91.5698 23.7492 87.9536 27.2247 81.7091 27.2247C74.8339 27.2247 71.0444 23.1213 71.0444 17.4371" fill="#000101"></path><path d="M94.9399 8.2477H99.9204V11.7205C100.797 10.2832 102.164 8.98395 103.78 8.38846C105.009 7.93372 106.235 7.79297 107.919 7.79297V13.0197H107.147C102.868 13.0197 100.132 15.5803 100.132 19.405V26.6672H94.9399V8.2477Z" fill="#000101"></path><path d="M125.919 16.5952C125.919 13.7179 123.64 11.8232 120.129 11.8232C116.618 11.8232 114.339 14.0346 114.339 17.4018C114.339 20.769 116.653 23.086 120.199 23.086C123.745 23.086 125.919 21.1209 125.919 18.0677V16.5952ZM131.11 0V26.6617H126.059V24.5558C124.587 26.169 121.675 27.2219 118.973 27.2219C113.148 27.2219 109.221 23.2917 109.221 17.3991C109.221 11.5065 113.151 7.68179 119.079 7.68179C121.675 7.68179 124.27 8.76991 125.919 10.5239V0H131.11Z" fill="#000101"></path><path d="M150.548 17.4371C150.548 13.8235 148.301 11.788 144.688 11.788C141.074 11.788 138.863 13.8235 138.863 17.4371C138.863 21.0506 141.074 23.1213 144.688 23.1213C148.301 23.1213 150.548 21.0858 150.548 17.4371ZM133.744 17.4371C133.744 11.7177 138.059 7.68457 144.761 7.68457C151.463 7.68457 155.636 11.7177 155.636 17.4371C155.636 23.1565 151.392 27.2247 144.761 27.2247C138.129 27.2247 133.744 23.0861 133.744 17.4371Z" fill="#000101"></path><path d="M174.716 16.5953C174.716 13.4717 172.226 11.8232 168.856 11.8232C165.172 11.8232 162.964 13.7883 162.964 17.4019C162.964 21.0154 165.21 23.0861 168.927 23.0861C172.294 23.0861 174.716 21.4025 174.716 18.0704V16.598V16.5953ZM179.908 8.24487V24.2067C179.908 32.17 176.083 35.0825 169.628 35.0825C163.665 35.0825 159.875 32.8359 158.857 28.4861H163.943C164.539 30.1697 166.61 31.1522 169.381 31.1522C173.312 31.1522 174.643 29.5742 174.714 25.6792V24.3826C173.136 26.207 170.748 27.2247 167.768 27.2247C161.664 27.2247 158.016 23.1565 158.016 17.3315C158.016 11.8584 161.172 7.68457 167.557 7.68457C170.54 7.68457 173.1 8.70232 174.714 10.6674V8.24758H179.905L179.908 8.24487Z" fill="#000101"></path></svg><svg viewBox="0 0 727 144" fill="none" id="logo_text-big"><path d="M0 78.6071V33.6941H20.9682V72.4691C20.9682 89.7171 29.6157 94.1391 38.6786 94.1391C52.4205 94.1391 62.205 85.1521 62.205 70.7531V33.6831H83.1732V108.527H62.205V96.5481C55.1208 107.097 44.4946 110.804 32.163 110.804C11.7632 110.804 0 99.9691 0 78.5851" fill="#FFCA00"></path><path d="M96.0732 33.7047H117.041V44.9687C124.268 34.9917 136.031 31.4277 146.657 31.4277C167.057 31.4277 179.246 43.4068 179.246 62.9318V108.56H158.278V70.4887C158.278 54.8027 151.478 48.1038 139.857 48.1038C127.241 48.1038 117.041 57.0908 117.041 71.3468V108.56H96.0732V33.7047Z" fill="#FFCA00"></path><path d="M256.626 67.629C256.626 55.936 247.421 48.236 233.241 48.236C219.062 48.236 209.857 57.223 209.857 70.907C209.857 84.591 219.204 94.007 233.515 94.007C247.825 94.007 256.615 86.021 256.615 73.613V67.629H256.626ZM277.594 0.187988V108.538H257.194V99.98C251.247 106.536 239.484 110.815 228.573 110.815C205.047 110.815 189.184 94.843 189.184 70.896C189.184 46.949 205.058 31.4059 229 31.4059C239.484 31.4059 249.968 35.8279 256.626 42.9559V0.187988H277.594Z" fill="#FFCA00"></path><path d="M350.72 63.779C350.578 53.659 341.231 48.093 329.752 48.093C318.273 48.093 308.215 53.516 308.215 63.779H350.72ZM286.952 71.05C286.952 47.664 302.826 31.417 329.457 31.417C353.399 31.417 371.251 44.672 371.251 67.772V76.748H308.051C309.472 87.44 317.125 94.139 330.583 94.139C341.635 94.139 348.719 89.145 350.709 83.876H371.393C369.841 96.702 355.235 110.826 330.014 110.826C302.246 110.826 286.941 94.15 286.941 71.05" fill="#FFCA00"></path><path d="M383.452 33.7049H403.567V47.8179C407.109 41.9769 412.63 36.6969 419.157 34.2769C424.12 32.4289 429.072 31.8569 435.872 31.8569V53.0979H432.757C415.472 53.0979 404.42 63.504 404.42 79.047V108.56H383.452V33.7049Z" fill="#FFCA00"></path><path d="M508.572 67.629C508.572 55.936 499.367 48.236 485.188 48.236C471.008 48.236 461.803 57.223 461.803 70.907C461.803 84.591 471.15 94.007 485.472 94.007C499.793 94.007 508.572 86.021 508.572 73.613V67.629ZM529.54 0.187988V108.538H509.14V99.98C503.193 106.536 491.43 110.815 480.519 110.815C456.993 110.815 441.13 94.843 441.13 70.896C441.13 46.949 457.004 31.4059 480.946 31.4059C491.43 31.4059 501.914 35.8279 508.572 42.9559V0.187988H529.54Z" fill="#FFCA00"></path><path d="M608.046 71.05C608.046 56.365 598.972 48.093 584.377 48.093C569.782 48.093 560.851 56.365 560.851 71.05C560.851 85.735 569.782 94.15 584.377 94.15C598.972 94.15 608.046 85.878 608.046 71.05ZM540.178 71.05C540.178 47.807 557.604 31.417 584.672 31.417C611.741 31.417 628.598 47.807 628.598 71.05C628.598 94.293 611.456 110.826 584.672 110.826C557.888 110.826 540.178 94.007 540.178 71.05Z" fill="#FFCA00"></path><path d="M705.66 67.629C705.66 54.935 695.602 48.236 681.992 48.236C667.113 48.236 658.192 56.222 658.192 70.907C658.192 85.592 667.266 94.007 682.276 94.007C695.876 94.007 705.66 87.165 705.66 73.624V67.64V67.629ZM726.628 33.694V98.561C726.628 130.923 711.181 142.759 685.107 142.759C661.023 142.759 645.718 133.629 641.608 115.952H662.149C664.554 122.794 672.918 126.787 684.112 126.787C699.986 126.787 705.365 120.374 705.649 104.545V99.276C699.276 106.69 689.633 110.826 677.597 110.826C652.944 110.826 638.208 94.293 638.208 70.621C638.208 48.379 650.955 31.417 676.744 31.417C688.791 31.417 699.133 35.553 705.649 43.539V33.705H726.617L726.628 33.694Z" fill="#FFCA00"></path></svg><svg viewBox="0 0 39 35" fill="none" id="quote"><path d="M3.30453 34.9853C1.86453 31.9053 1.06453 28.8253 0.904532 25.7453C0.784532 22.6253 1.22453 19.6053 2.22453 16.6853C3.26453 13.7253 4.84453 10.8853 6.96453 8.16527C9.08453 5.40527 11.6845 2.84527 14.7645 0.485271L18.7845 3.12527C19.4245 3.52527 19.7445 4.08527 19.7445 4.80527C19.7445 5.24527 19.6245 5.66527 19.3845 6.06527C19.1445 6.42527 18.7645 6.88527 18.2445 7.44527C17.5645 8.24527 16.7845 9.30527 15.9045 10.6253C15.0245 11.9453 14.3045 13.4853 13.7445 15.2453C13.2245 17.0053 12.9845 18.9453 13.0245 21.0653C13.0645 23.1853 13.6245 25.4253 14.7045 27.7853C15.0245 28.5853 14.9645 29.3453 14.5245 30.0653C14.0845 30.7453 13.3645 31.2653 12.3645 31.6253L3.30453 34.9853ZM21.6045 34.9853C20.1645 31.9053 19.3645 28.8253 19.2045 25.7453C19.0845 22.6253 19.5245 19.6053 20.5245 16.6853C21.5645 13.7253 23.1445 10.8853 25.2645 8.16527C27.3845 5.40527 29.9845 2.84527 33.0645 0.485271L37.0845 3.12527C37.7245 3.52527 38.0445 4.08527 38.0445 4.80527C38.0445 5.24527 37.9245 5.66527 37.6845 6.06527C37.4445 6.42527 37.0645 6.88527 36.5445 7.44527C35.8645 8.24527 35.0845 9.30527 34.2045 10.6253C33.3245 11.9453 32.6045 13.4853 32.0445 15.2453C31.5245 17.0053 31.2845 18.9453 31.3245 21.0653C31.3645 23.1853 31.9245 25.4253 33.0045 27.7853C33.3245 28.5853 33.2645 29.3453 32.8245 30.0653C32.3845 30.7453 31.6645 31.2653 30.6645 31.6253L21.6045 34.9853Z" fill="#FFCA00"></path></svg><svg viewBox="0 0 17 17" fill="none" id="scroll"><path d="M16 1L8.5 8.5L1 1" stroke="#FFCA00" stroke-width="1.5" stroke-linecap="round" stroke-linejoin="round"></path><path d="M16 8.5L8.5 16L1 8.5" stroke="#FFCA00" stroke-width="1.5" stroke-linecap="round" stroke-linejoin="round"></path></svg><svg viewBox="0 0 32 32" fill="none" id="twitter"><path d="M28.768 8.0641C27.808 8.4801 26.816 8.7681 25.76 8.8961C26.848 8.2561 27.68 7.2321 28.064 5.9841C27.04 6.5921 25.92 7.0081 24.736 7.2641C23.776 6.2401 22.4 5.6001 20.896 5.6001C17.984 5.6001 15.648 7.9681 15.648 10.8481C15.648 11.2641 15.68 11.6481 15.776 12.0321C11.424 11.8401 7.58397 9.7281 4.99197 6.5601C3.13597 9.8881 5.21597 12.6401 6.59197 13.5681C5.75997 13.5681 4.92797 13.3121 4.22397 12.9281C4.22397 15.5201 6.04797 17.6641 8.41597 18.1441C7.90397 18.3041 6.75197 18.4001 6.04797 18.2401C6.71997 20.3201 8.67197 21.8561 10.944 21.8881C9.15197 23.2961 6.52797 24.4161 3.16797 24.0641C5.50397 25.5681 8.25597 26.4321 11.232 26.4321C20.896 26.4321 26.144 18.4321 26.144 11.5201C26.144 11.2961 26.144 11.0721 26.112 10.8481C27.2 10.0481 28.096 9.1201 28.768 8.0641Z" fill="#000101"></path></svg></svg>